{"title":"Dylan Dog Dead Of Night *2010* [BluRay.1080p.x264-miguel] [ENG]","uid":6546138,"size":10281346503,"categoryP":"video","categoryS":"hd___movies","magnet":"?xt=urn:btih:8d15e2984ceb9264ca482836f8d91faeea4998b2&amp;dn=Dylan+Dog+Dead+Of+Night+%2A2010%2A+%5BBluRay.1080p.x264-miguel%5D+%5BENG%5D&amp;tr=udp%3A%2F%2Ftracker.openbittorrent.com%3A80&amp;tr=udp%3A%2F%2Fopen.demonii.com%3A1337&amp;tr=udp%3A%2F%2Ftracker.coppersurfer.tk%3A6969&amp;tr=udp%3A%2F%2Fexodus.desync.com%3A6969","seeders":1,"leechers":0,"uploader":"miguel1983","files":-1,"time":1310865980,"description":" &lt;a href=&quot;http://img143.imageshack.us/img143/2600/dddvde1308505588551.jpg&quot; rel=&quot;nofollow&quot; target=&quot;_NEW&quot;&gt;http://img143.imageshack.us/img143/2600/dddvde1308505588551.jpg&lt;/a&gt;\n\nCountry.......: USA\nGenre.........: Horror, Thriller, Comedy\nDate release..: 29.04.2011 [World]\nDirector......: Kevin Munroe\nWriters.......: Thomas Dean Donnelly, Joshua Oppenheimer\nDuration......: 108 min.\nMore..........: http://www.imdb.com/title/tt1013860\nTrailer.......: http://www.imdb.com/video/imdb/vi4273511705\nTrailer.......:\n\nPilot :\nThe adventures of supernatural private eye, Dylan Dog, who seeks out the monsters of the Louisiana bayou in his signature red shirt, black jacket, and blue jeans.\n\nCats :\nBrandon Routh   ...   Dylan Dog\nSam Huntington ... Marcus\nPeter Stormare ... Gabriel\nTaye Diggs ... Vargas\nAnita Briem ... Elizabeth\nAndrew Sensenig ... Rosenberg\nBrian Steele ... Tatooed Zombie\nKurt Angle ... Wolfgang\nRandal Reeder ... Bob the Mechanic\nKimberly Whalen ... Kelly\nJames Hebert ... Lorca\nCourtney J. Clark ... Ally\nKent Jude Bernard ... Slake\nAda Michelle Loridans ... Zombie Mall Rat\nMarco St. John ... Borelli\n\nData Technical :\n!!! SAMPLE !!!\nAudio.....: English\nSubtitles.: Polish .srt\nFormat                           : Matroska\nFile size                        : 9.50 GiB\nDuration                         : 1h 47mn\nOverall bit rate                 : 12.6 Mbps\nEncoded date                     : UTC 2011-06-09 07:56:08\nWriting application              : mkvmerge v3.2.0 ('Beginnings') Feb 12 2010 16:46:17\nWriting library                  : libebml v0.7.9 + libmatroska v0.8.1\nVideo\nID                               : 1\nFormat                           : AVC\nFormat/Info                      : Advanced Video Codec\nFormat profile                   : &lt;a class=&quot;__cf_email__&quot; href=&quot;/cdn-cgi/l/email-protection&quot; data-cfemail=&quot;f6be9f919eb6bac2d8c7&quot;&gt;[email&amp;#160;protected]&lt;/a&gt;&lt;script cf-hash='f9e31' type=&quot;text/javascript&quot;&gt;\n/* &lt;![CDATA[ */!function(){try{var t=&quot;currentScript&quot;in document?document.currentScript:function(){for(var t=document.getElementsByTagName(&quot;script&quot;),e=t.length;e--;)if(t[e].getAttribute(&quot;cf-hash&quot;))return t[e]}();if(t&amp;&amp;t.previousSibling){var e,r,n,i,c=t.previousSibling,a=c.getAttribute(&quot;data-cfemail&quot;);if(a){for(e=&quot;&quot;,r=parseInt(a.substr(0,2),16),n=2;a.length-n;n+=2)i=parseInt(a.substr(n,2),16)^r,e+=String.fromCharCode(i);e=document.createTextNode(e),c.parentNode.replaceChild(e,c)}}}catch(u){}}();/* ]]&gt; */&lt;/script&gt;\nFormat settings, CABAC           : Yes\nFormat settings, ReFrames        : 5 frames\nMuxing mode                      : Container profile=&lt;a class=&quot;__cf_email__&quot; href=&quot;/cdn-cgi/l/email-protection&quot; data-cfemail=&quot;52073c393c3d253c12667c63&quot;&gt;[email&amp;#160;protected]&lt;/a&gt;&lt;script cf-hash='f9e31' type=&quot;text/javascript&quot;&gt;\n/* &lt;![CDATA[ */!function(){try{var t=&quot;currentScript&quot;in document?document.currentScript:function(){for(var t=document.getElementsByTagName(&quot;script&quot;),e=t.length;e--;)if(t[e].getAttribute(&quot;cf-hash&quot;))return t[e]}();if(t&amp;&amp;t.previousSibling){var e,r,n,i,c=t.previousSibling,a=c.getAttribute(&quot;data-cfemail&quot;);if(a){for(e=&quot;&quot;,r=parseInt(a.substr(0,2),16),n=2;a.length-n;n+=2)i=parseInt(a.substr(n,2),16)^r,e+=String.fromCharCode(i);e=document.createTextNode(e),c.parentNode.replaceChild(e,c)}}}catch(u){}}();/* ]]&gt; */&lt;/script&gt;\nCodec ID                         : V_MPEG4/ISO/AVC\nDuration                         : 1h 47mn\nBit rate                         : 11.1 Mbps\nWidth                            : 1 920 pixels\nHeight                           : 816 pixels\nDisplay aspect ratio             : 2.35:1\nFrame rate                       : 23.976 fps\nColor space                      : YUV\nChroma subsampling               : 4:2:0\nBit depth                        : 8 bits\nScan type                        : Progressive\nBits/(Pixel*Frame)               : 0.296\nStream size                      : 8.17 GiB (86%)\nTitle                            : Dylan.Dog.2011\nWriting library                  : x264 core 114 r1924 08d04a4\nAudio\nID                               : 2\nFormat                           : DTS\nFormat/Info                      : Digital Theater Systems\nCodec ID                         : A_DTS\nDuration                         : 1h 47mn\nBit rate mode                    : Constant\nBit rate                         : 1 510 Kbps\nChannel(s)                       : 6 channels\nChannel positions                : Front: L C R, Side: L R, LFE\nSampling rate                    : 48.0 KHz\nBit depth                        : 24 bits\nStream size                      : 1.14 GiB (12%)\nTitle                            : DTS-CORE 1536K\n\nScreen : &lt;a href=&quot;\nhttp://img163.imageshack.us/img163/5349/dylandogdeadofnight2010.png&quot; rel=&quot;nofollow&quot; target=&quot;_NEW&quot;&gt;\nhttp://img163.imageshack.us/img163/5349/dylandogdeadofnight2010.png&lt;/a&gt; &lt;a href=&quot;\nhttp://img6.imageshack.us/img6/5349/dylandogdeadofnight2010.png&quot; rel=&quot;nofollow&quot; target=&quot;_NEW&quot;&gt;\nhttp://img6.imageshack.us/img6/5349/dylandogdeadofnight2010.png&lt;/a&gt; &lt;a href=&quot;\nhttp://img94.imageshack.us/img94/5349/dylandogdeadofnight2010.png&quot; rel=&quot;nofollow&quot; target=&quot;_NEW&quot;&gt;\nhttp://img94.imageshack.us/img94/5349/dylandogdeadofnight2010.png&lt;/a&gt; &lt;a href=&quot;\nhttp://img695.imageshack.us/img695/5349/dylandogdeadofnight2010.png&quot; rel=&quot;nofollow&quot; target=&quot;_NEW&quot;&gt;\nhttp://img695.imageshack.us/img695/5349/dylandogdeadofnight2010.png&lt;/a&gt; &lt;a href=&quot;\nhttp://img837.imageshack.us/img837/5349/dylandogdeadofnight2010.png&quot; rel=&quot;nofollow&quot; target=&quot;_NEW&quot;&gt;\nhttp://img837.imageshack.us/img837/5349/dylandogdeadofnight2010.png&lt;/a&gt;","torrent":{"xt":"urn:btih:8d15e2984ceb9264ca482836f8d91faeea4998b2","amp;dn":"Dylan+Dog+Dead+Of+Night+%2A2010%2A+%5BBluRay.1080p.x264-miguel%5D+%5BENG%5D","amp;tr":["udp%3A%2F%2Ftracker.openbittorrent.com%3A80","udp%3A%2F%2Fopen.demonii.com%3A1337","udp%3A%2F%2Ftracker.coppersurfer.tk%3A6969","udp%3A%2F%2Fexodus.desync.com%3A6969"],"infoHash":"8d15e2984ceb9264ca482836f8d91faeea4998b2","infoHashBuffer":{"type":"Buffer","data":[141,21,226,152,76,235,146,100,202,72,40,54,248,217,31,174,234,73,152,178]},"announce":[],"urlList":[]}}